<svg width="13" height="13" viewBox="0 0 13 13" fill="none" xmlns="http://www.w3.org/2000/svg">
<path d="M12.3359 10.8828L9.99219 8.53906C9.875 8.44531 9.73438 8.375 9.59375 8.375H9.21875C9.85156 7.55469 10.25 6.52344 10.25 5.375C10.25 2.70312 8.04688 0.5 5.375 0.5C2.67969 0.5 0.5 2.70312 0.5 5.375C0.5 8.07031 2.67969 10.25 5.375 10.25C6.5 10.25 7.53125 9.875 8.375 9.21875V9.61719C8.375 9.75781 8.42188 9.89844 8.53906 10.0156L10.8594 12.3359C11.0938 12.5703 11.4453 12.5703 11.6562 12.3359L12.3125 11.6797C12.5469 11.4688 12.5469 11.1172 12.3359 10.8828ZM5.375 8.375C3.71094 8.375 2.375 7.03906 2.375 5.375C2.375 3.73438 3.71094 2.375 5.375 2.375C7.01562 2.375 8.375 3.73438 8.375 5.375C8.375 7.03906 7.01562 8.375 5.375 8.375Z" fill="#69665C"/>
</svg>
